<?xml version="1.0" encoding="UTF-8" standalone="no"?>
<!-- Created with Inkscape (http://www.inkscape.org/) -->

<svg
   width="72"
   height="72"
   viewBox="0 0 19.05 19.050001"
   version="1.1"
   id="svg2175"
   xmlns="http://www.w3.org/2000/svg"
   xmlns:svg="http://www.w3.org/2000/svg">
  <defs
     id="defs2172" />
  <g
     id="layer1">
    <path
       id="rect972"
       style="opacity:1;fill:#000000;fill-opacity:0.37254903;stroke-width:2.30849;stroke-linecap:round;stroke-linejoin:round;stroke-dasharray:6.92546, 6.92546"
       d="M 3,2 2,3 V 9 H 4 V 4 H 9 V 2 Z m 12,0 v 2 h 6 V 2 Z m 12,0 v 2 h 6 V 2 Z m 12,0 v 2 h 6 V 2 Z m 12,0 v 2 h 6 V 2 Z m 12,0 v 2 h 5 v 5 h 2 V 3 L 69,2 Z M 2,15 v 6 h 2 v -6 z m 66,0 v 6 h 2 V 15 Z M 2,27 v 6 h 2 v -6 z m 66,0 v 6 h 2 V 27 Z M 2,39 v 6 h 2 v -6 z m 66,0 v 6 h 2 V 39 Z M 2,51 v 6 h 2 v -6 z m 66,0 v 6 h 2 V 51 Z M 2,63 v 6 l 1,1 H 9 V 68 H 4 v -5 z m 66,0 v 5 h -5 v 2 h 6 l 1,-1 v -6 z m -53,5 v 2 h 6 v -2 z m 12,0 v 2 h 6 v -2 z m 12,0 v 2 h 6 v -2 z m 12,0 v 2 h 6 v -2 z"
       transform="scale(0.26458333)" />
  </g>
</svg>
